<?xml version="1.0" encoding="UTF-8"?>
<svg width="2400" height="2400" viewBox="0 0 2400 2400" xmlns="http://www.w3.org/2000/svg">
  <defs>
    <!-- Gradient for crater shading -->
    <radialGradient id="craterGradient" cx="0.3" cy="0.3" r="0.7">
      <stop offset="0%" stop-color="#DEB887"/>
      <stop offset="100%" stop-color="#F0E68C"/>
    </radialGradient>
    
    <!-- Star pattern -->
    <g id="star">
      <circle r="4" fill="white"/>
      <path d="M0,-6 L0,6 M-6,0 L6,0" stroke="white" stroke-width="1"/>
    </g>

    <!-- Twinkling star pattern -->
    <g id="twinkle-star">
      <circle r="4" fill="white"/>
      <path d="M0,-6 L0,6 M-6,0 L6,0" stroke="white" stroke-width="1"/>
      <animate
        attributeName="opacity"
        values="1;0.3;1"
        dur="2s"
        repeatCount="indefinite"
      />
    </g>

    <!-- Larger twinkling star pattern -->
    <g id="large-twinkle-star">
      <circle r="6" fill="white"/>
      <path d="M0,-9 L0,9 M-9,0 L9,0" stroke="white" stroke-width="1.5"/>
      <animate
        attributeName="opacity"
        values="1;0.3;1"
        dur="2s"
        repeatCount="indefinite"
      />
    </g>

    <!-- Rocket pattern -->
    <g id="rocket">
      <!-- Rocket body with conical nose:
           M-15,-40: Start at base of nose cone
           L0,-60: Straight line to tip of cone
           L15,-40: Straight line to other side of nose cone base
           L15,20: Body right side
           L-15,20: Body bottom
           Z: Close path back to start -->
      <path d="
        M-15,-40
        L0,-60
        L15,-40
        L15,20
        L-15,20
        Z"
        fill="#D3D3D3" stroke="#808080" stroke-width="2"/>
      
      <!-- Separation line between nose cone and body -->
      <line x1="-15" y1="-40" x2="15" y2="-40" stroke="#808080" stroke-width="2"/>
      
      <!-- Rocket window (moved just below the separation line) -->
      <circle cx="0" cy="-30" r="8" fill="#87CEEB" stroke="#4682B4" stroke-width="2"/>
      
      <!-- Larger fins that start higher up on body -->
      <path d="M-15,0 L-40,35 L-15,35 Z" fill="#CD5C5C"/>
      <path d="M15,0 L40,35 L15,35 Z" fill="#CD5C5C"/>
      
      <!-- Animated flame -->
      <g>
        <animate 
          attributeName="opacity"
          values="0.6;1;0.6"
          dur="0.5s"
          repeatCount="indefinite"
        />
        <path d="M-10,20 L0,50 L10,20" fill="none" stroke="#FFA500" stroke-width="3"/>
        <path d="M-7,20 L0,45 L7,20" fill="none" stroke="#FF4500" stroke-width="4"/>
        <path d="M-5,20 L0,35 L5,20" fill="none" stroke="#FF0000" stroke-width="5"/>
      </g>
    </g>
  </defs>

  <!-- Black background -->
  <rect x="0" y="0" width="2400" height="2400" fill="#000000"/>

  <!-- Static Stars -->
  <use href="#star" x="200" y="200"/>
  <use href="#star" x="1000" y="400"/>
  <use href="#star" x="2000" y="600"/>
  <use href="#star" x="800" y="1000"/>
  <use href="#star" x="300" y="1400"/>
  <use href="#star" x="1200" y="1800"/>
  <use href="#star" x="1900" y="1000"/>
  <use href="#star" x="500" y="2000"/>
  <use href="#star" x="1400" y="2200"/>
  <!-- Additional Static Stars -->
  <use href="#star" x="150" y="600"/>
  <use href="#star" x="450" y="900"/>
  <use href="#star" x="750" y="1200"/>
  <use href="#star" x="1050" y="1500"/>
  <use href="#star" x="1350" y="1800"/>
  <use href="#star" x="1650" y="300"/>
  <use href="#star" x="1950" y="600"/>
  <use href="#star" x="2250" y="900"/>
  <use href="#star" x="350" y="2100"/>
  <use href="#star" x="950" y="1900"/>
  
  <!-- Original Twinkling Stars -->
  <use href="#twinkle-star" x="600" y="300" transform="scale(1.5)"/>
  <use href="#twinkle-star" x="1800" y="300" transform="scale(1.2)"/>
  <use href="#twinkle-star" x="400" y="800" transform="scale(1.3)"/>
  <use href="#twinkle-star" x="1600" y="900" transform="scale(1.4)"/>
  <use href="#twinkle-star" x="700" y="1600" transform="scale(1.2)"/>
  <use href="#twinkle-star" x="1800" y="1700" transform="scale(1.5)"/>
  <use href="#twinkle-star" x="2200" y="1400"/>
  <use href="#twinkle-star" x="1500" y="1200" transform="scale(1.3)"/>
  <use href="#twinkle-star" x="2100" y="400" transform="scale(1.4)"/>
  <use href="#twinkle-star" x="200" y="1800" transform="scale(1.2)"/>

  <!-- New Larger Twinkling Stars -->
  <use href="#large-twinkle-star" x="300" y="250" transform="scale(1.8)"/>
  <use href="#large-twinkle-star" x="900" y="350" transform="scale(1.6)"/>
  <use href="#large-twinkle-star" x="1500" y="450" transform="scale(1.7)"/>
  <use href="#large-twinkle-star" x="2100" y="550" transform="scale(1.9)"/>
  <use href="#large-twinkle-star" x="250" y="1150" transform="scale(1.8)"/>
  <use href="#large-twinkle-star" x="850" y="1250" transform="scale(1.7)"/>
  <use href="#large-twinkle-star" x="1450" y="1350" transform="scale(1.6)"/>
  <use href="#large-twinkle-star" x="2050" y="1450" transform="scale(1.9)"/>
  <use href="#large-twinkle-star" x="650" y="1950" transform="scale(1.8)"/>
  <use href="#large-twinkle-star" x="1750" y="2050" transform="scale(1.7)"/>
  
  <!-- Smaller stars -->
  <circle cx="360" cy="500" r="2" fill="white"/>
  <circle cx="840" cy="300" r="2" fill="white"/>
  <circle cx="1360" cy="360" r="2" fill="white"/>
  <circle cx="1840" cy="440" r="2" fill="white"/>
  <circle cx="2240" cy="760" r="2" fill="white"/>
  <circle cx="560" cy="1160" r="2" fill="white"/>
  <circle cx="1040" cy="1360" r="2" fill="white"/>
  <circle cx="1560" cy="1560" r="2" fill="white"/>
  <circle cx="1960" cy="1960" r="2" fill="white"/>
  <circle cx="300" cy="2160" r="2" fill="white"/>
  <circle cx="760" cy="1840" r="2" fill="white"/>
  <circle cx="1240" cy="1640" r="2" fill="white"/>
  <circle cx="1700" cy="1440" r="2" fill="white"/>
  <circle cx="2160" cy="1040" r="2" fill="white"/>
  <circle cx="440" cy="640" r="2" fill="white"/>

  <g transform="translate(1200,1200)">
    <!-- Moon circle -->
    <circle cx="0" cy="0" r="360" fill="#FFFACD"/>
    
    <!-- Craters -->
    <circle cx="-240" cy="-200" r="30" fill="url(#craterGradient)"/>
    <circle cx="200" cy="-240" r="36" fill="url(#craterGradient)"/>
    <circle cx="160" cy="200" r="40" fill="url(#craterGradient)"/>
    <circle cx="-180" cy="160" r="24" fill="url(#craterGradient)"/>
    <circle cx="-40" cy="-240" r="20" fill="url(#craterGradient)"/>
    <circle cx="280" cy="-40" r="30" fill="url(#craterGradient)"/>
    <circle cx="-280" cy="40" r="24" fill="url(#craterGradient)"/>
    <circle cx="60" cy="280" r="28" fill="url(#craterGradient)"/>
    <circle cx="-200" cy="-80" r="20" fill="url(#craterGradient)"/>
    
    <!-- Eyes -->
    <circle cx="-120" cy="-60" r="40" fill="#000000"/>
    <circle cx="120" cy="-60" r="40" fill="#000000"/>
    
    <!-- Smile -->
    <path d="M-120 100 Q0 220 120 100" fill="none" stroke="#000000" stroke-width="40" stroke-linecap="round"/>
  </g>

  <!-- Animated rocket -->
  <g>
    <animateMotion
      path="M-400,1800 C 800,1600 1600,1200 2800,1000"
      dur="15s"
      repeatCount="indefinite"
    />
    <animateTransform
      attributeName="transform"
      type="rotate"
      from="30 0 0"
      to="0 0 0"
      dur="15s"
      repeatCount="indefinite"
    />
    <use href="#rocket" transform="scale(2)"/>
  </g>
</svg> 